G04 Layer_Color=16711935*
%FSLAX44Y44*%
%MOMM*%
G71*
G01*
G75*
%ADD26C,0.2540*%
%ADD37C,0.6000*%
%ADD45R,2.1032X2.1032*%
%ADD57C,1.7272*%
%ADD58O,1.7032X2.7032*%
%ADD59R,1.7032X2.7032*%
G04:AMPARAMS|DCode=60|XSize=2.2032mm|YSize=1.4032mm|CornerRadius=0.4616mm|HoleSize=0mm|Usage=FLASHONLY|Rotation=180.000|XOffset=0mm|YOffset=0mm|HoleType=Round|Shape=RoundedRectangle|*
%AMROUNDEDRECTD60*
21,1,2.2032,0.4800,0,0,180.0*
21,1,1.2800,1.4032,0,0,180.0*
1,1,0.9232,-0.6400,0.2400*
1,1,0.9232,0.6400,0.2400*
1,1,0.9232,0.6400,-0.2400*
1,1,0.9232,-0.6400,-0.2400*
%
%ADD60ROUNDEDRECTD60*%
%ADD61O,2.7032X1.7032*%
%ADD62R,2.7032X1.7032*%
%ADD63C,2.1032*%
%ADD64C,0.8032*%
D26*
X579000Y286000D02*
Y301235D01*
X573922Y296157D01*
X568843Y301235D01*
Y286000D01*
X563765D02*
X558687D01*
X561226D01*
Y296157D01*
X563765D01*
X551069Y286000D02*
Y296157D01*
X543451D01*
X540912Y293617D01*
Y286000D01*
X535834D02*
X530756D01*
X533295D01*
Y296157D01*
X535834D01*
X512981Y298696D02*
X515521Y301235D01*
X520599D01*
X523138Y298696D01*
Y296157D01*
X520599Y293617D01*
X515521D01*
X512981Y291078D01*
Y288539D01*
X515521Y286000D01*
X520599D01*
X523138Y288539D01*
X507903Y286000D02*
Y296157D01*
X502825Y301235D01*
X497746Y296157D01*
Y286000D01*
Y293617D01*
X507903D01*
X492668Y286000D02*
Y301235D01*
X487590Y296157D01*
X482511Y301235D01*
Y286000D01*
X477433Y301235D02*
Y286000D01*
X469815D01*
X467276Y288539D01*
Y298696D01*
X469815Y301235D01*
X477433D01*
X452041Y286000D02*
X462198D01*
X452041Y296157D01*
Y298696D01*
X454580Y301235D01*
X459659D01*
X462198Y298696D01*
X446963Y286000D02*
X441884D01*
X444423D01*
Y301235D01*
X446963Y298696D01*
X424110D02*
X426649Y301235D01*
X431728D01*
X434267Y298696D01*
Y288539D01*
X431728Y286000D01*
X426649D01*
X424110Y288539D01*
Y293617D01*
X429188D01*
X419032Y286000D02*
X413953D01*
X416493D01*
Y301235D01*
X419032Y298696D01*
X406336D02*
X403797Y301235D01*
X398718D01*
X396179Y298696D01*
Y296157D01*
X398718Y293617D01*
X396179Y291078D01*
Y288539D01*
X398718Y286000D01*
X403797D01*
X406336Y288539D01*
Y291078D01*
X403797Y293617D01*
X406336Y296157D01*
Y298696D01*
X403797Y293617D02*
X398718D01*
X579000Y324235D02*
Y309000D01*
Y314078D01*
X568843Y324235D01*
X576461Y316618D01*
X568843Y309000D01*
X561226D02*
X556147D01*
X553608Y311539D01*
Y316618D01*
X556147Y319157D01*
X561226D01*
X563765Y316618D01*
Y311539D01*
X561226Y309000D01*
X548530Y319157D02*
Y311539D01*
X545991Y309000D01*
X543451Y311539D01*
X540912Y309000D01*
X538373Y311539D01*
Y319157D01*
X533295Y309000D02*
X528216D01*
X530756D01*
Y319157D01*
X533295D01*
X520599Y309000D02*
Y319157D01*
X512981D01*
X510442Y316618D01*
Y309000D01*
X479972Y321696D02*
X482511Y324235D01*
X487590D01*
X490129Y321696D01*
Y319157D01*
X487590Y316618D01*
X482511D01*
X479972Y314078D01*
Y311539D01*
X482511Y309000D01*
X487590D01*
X490129Y311539D01*
X474894Y324235D02*
Y309000D01*
Y316618D01*
X472355Y319157D01*
X467276D01*
X464737Y316618D01*
Y309000D01*
X459659D02*
X454580D01*
X457119D01*
Y319157D01*
X459659D01*
D37*
X395000Y354000D02*
D03*
X415000Y355000D02*
D03*
X421030Y379730D02*
D03*
X299000Y328000D02*
D03*
X343000Y455000D02*
D03*
X414000Y504000D02*
D03*
X401000Y517000D02*
D03*
X407000Y548000D02*
D03*
X502000Y431000D02*
D03*
X556000Y472000D02*
D03*
Y437000D02*
D03*
X550000Y412000D02*
D03*
X409000Y419000D02*
D03*
X367000Y460000D02*
D03*
X398000Y339000D02*
D03*
X345000Y327000D02*
D03*
X398000Y363000D02*
D03*
X397999Y371999D02*
D03*
X351000Y336000D02*
D03*
X357000Y349000D02*
D03*
X351999Y364999D02*
D03*
X504402Y343000D02*
D03*
X506000Y354000D02*
D03*
X507402Y365000D02*
D03*
X392999Y431999D02*
D03*
X384000Y432000D02*
D03*
X370000Y441000D02*
D03*
X462000Y399000D02*
D03*
X404000Y382000D02*
D03*
X390999Y383999D02*
D03*
X460000Y410000D02*
D03*
X488000Y560000D02*
D03*
X435760Y419240D02*
D03*
X449000Y418000D02*
D03*
X556000Y489000D02*
D03*
X531000Y499000D02*
D03*
X318000Y479000D02*
D03*
D45*
X353500Y590500D02*
D03*
D57*
X596000Y550000D02*
D03*
Y360000D02*
D03*
X261000Y634000D02*
D03*
Y256000D02*
D03*
D58*
X310300Y632000D02*
D03*
X335700D02*
D03*
X361100D02*
D03*
X386500D02*
D03*
X411900D02*
D03*
X437300D02*
D03*
X462700D02*
D03*
X488100D02*
D03*
X513500D02*
D03*
X538900D02*
D03*
X564300D02*
D03*
X589700Y258000D02*
D03*
X564300D02*
D03*
X538900D02*
D03*
X513500D02*
D03*
X488100D02*
D03*
X462700D02*
D03*
X437300D02*
D03*
X411900D02*
D03*
X386500D02*
D03*
X361100D02*
D03*
X335700D02*
D03*
D59*
X589700Y632000D02*
D03*
X310300Y258000D02*
D03*
D60*
X595375Y417000D02*
D03*
Y483000D02*
D03*
D61*
X268000Y305300D02*
D03*
Y330700D02*
D03*
Y356100D02*
D03*
Y381500D02*
D03*
Y406900D02*
D03*
Y432300D02*
D03*
Y457700D02*
D03*
Y483100D02*
D03*
Y508500D02*
D03*
Y533900D02*
D03*
Y559300D02*
D03*
D62*
Y584700D02*
D03*
D63*
X353500Y525500D02*
D03*
X308500D02*
D03*
Y590500D02*
D03*
D64*
X435000Y386000D02*
D03*
X379000Y314000D02*
D03*
M02*
