G04 Layer_Color=8421504*
%FSLAX44Y44*%
%MOMM*%
G71*
G01*
G75*
%ADD10R,1.3000X1.3000*%
%ADD11R,1.3000X3.8000*%
%ADD12R,1.3500X0.4000*%
%ADD13R,1.4000X1.6000*%
%ADD14R,1.9000X1.9000*%
%ADD15R,2.4000X0.7400*%
%ADD16R,0.2900X1.3500*%
%ADD17R,1.3500X0.2900*%
%ADD18R,1.3000X0.9000*%
%ADD19R,0.7000X1.3000*%
%ADD20R,0.9000X0.6000*%
%ADD21R,0.9000X1.3000*%
%ADD22R,0.8000X0.8000*%
%ADD23R,1.3000X0.7000*%
%ADD24R,1.8000X1.0000*%
%ADD25R,0.6000X0.9000*%
D10*
X520500Y477000D02*
D03*
Y454000D02*
D03*
Y431000D02*
D03*
D11*
X459500Y454000D02*
D03*
D12*
X568625Y437000D02*
D03*
Y443500D02*
D03*
Y450000D02*
D03*
Y456500D02*
D03*
Y463000D02*
D03*
D13*
X570875Y418000D02*
D03*
Y482000D02*
D03*
D14*
X595375Y438000D02*
D03*
Y462000D02*
D03*
D15*
X467500Y522600D02*
D03*
Y535300D02*
D03*
Y548000D02*
D03*
Y560700D02*
D03*
Y573400D02*
D03*
X428500Y522600D02*
D03*
Y535300D02*
D03*
Y548000D02*
D03*
Y560700D02*
D03*
Y573400D02*
D03*
D16*
X390760Y402230D02*
D03*
X395760D02*
D03*
X400760D02*
D03*
X405760D02*
D03*
X410760D02*
D03*
X415760D02*
D03*
X420760D02*
D03*
X425760D02*
D03*
X430760D02*
D03*
X435760D02*
D03*
X440760D02*
D03*
X445760D02*
D03*
Y312230D02*
D03*
X440760D02*
D03*
X435760D02*
D03*
X430760D02*
D03*
X425760D02*
D03*
X420760D02*
D03*
X415760D02*
D03*
X410760D02*
D03*
X405760D02*
D03*
X400760D02*
D03*
X395760D02*
D03*
X390760D02*
D03*
D17*
X463260Y384730D02*
D03*
Y379730D02*
D03*
Y374730D02*
D03*
Y369730D02*
D03*
Y364730D02*
D03*
Y359730D02*
D03*
Y354730D02*
D03*
Y349730D02*
D03*
Y344730D02*
D03*
Y339730D02*
D03*
Y334730D02*
D03*
Y329730D02*
D03*
X373260D02*
D03*
Y334730D02*
D03*
Y339730D02*
D03*
Y344730D02*
D03*
Y349730D02*
D03*
Y354730D02*
D03*
Y359730D02*
D03*
Y364730D02*
D03*
Y369730D02*
D03*
Y374730D02*
D03*
Y379730D02*
D03*
Y384730D02*
D03*
D18*
X313000Y338500D02*
D03*
Y357500D02*
D03*
X334000Y338500D02*
D03*
Y357500D02*
D03*
X434000Y476500D02*
D03*
Y457500D02*
D03*
X507000Y383500D02*
D03*
Y402500D02*
D03*
X483000Y383500D02*
D03*
Y402500D02*
D03*
X530000Y383500D02*
D03*
Y402500D02*
D03*
D19*
X327500Y445000D02*
D03*
X308500D02*
D03*
X480500Y502000D02*
D03*
X461500D02*
D03*
X337500Y314000D02*
D03*
X356500D02*
D03*
X359500Y479000D02*
D03*
X378500D02*
D03*
D20*
X402000Y463500D02*
D03*
Y478500D02*
D03*
X541000Y432500D02*
D03*
Y447500D02*
D03*
Y469500D02*
D03*
Y484500D02*
D03*
D21*
X435500Y436000D02*
D03*
X416500D02*
D03*
X581500Y514000D02*
D03*
X562500D02*
D03*
D22*
X496000Y499000D02*
D03*
X512000D02*
D03*
X321000Y316000D02*
D03*
X305000D02*
D03*
X359000Y501000D02*
D03*
X343000D02*
D03*
X556000Y329000D02*
D03*
X572000D02*
D03*
D23*
X535000Y328500D02*
D03*
Y347500D02*
D03*
D24*
X349680Y382830D02*
D03*
Y407830D02*
D03*
D25*
X312970Y382630D02*
D03*
X327970D02*
D03*
X312970Y408030D02*
D03*
X327970D02*
D03*
M02*
