M48
;Layer_Color=9474304
;FILE_FORMAT=4:4
METRIC,LZ
;TYPE=PLATED
T1F00S00C0.5000
T3F00S00C1.0000
;TYPE=NON_PLATED
T4F00S00C2.2000
%
T01
X00299Y00328
X00345Y00327
X00351Y00336
X00357Y00349
X00351999Y00364999
X00395Y00354
X00390999Y00383999
X00379Y00314
X00398Y00339
Y00363
X00397999Y00371999
X00404Y00382
X0042103Y0037973
X00435Y00386
X00415Y00355
X00506Y00354
X00507402Y00365
X00504402Y00343
X00502Y00431
X00556Y00437
X0055Y00412
X00556Y00472
Y00489
X00531Y00499
X00488Y0056
X00407Y00548
X00401Y00517
X00414Y00504
X00409Y00419
X0043576Y0041924
X00449Y00418
X0046Y0041
X00462Y00399
X00392999Y00431999
X00384Y00432
X0037Y00441
X00367Y0046
X00343Y00455
X00318Y00479
T03
X003103Y00258
X003357
X003611
X003865
X00268Y003053
Y003307
Y003561
Y003815
X004119Y00258
X004373
X004627
X004881
X005135
X005389
X005643
X005897
Y00632
X005643
X005389
X005135
X004881
X004627
X004373
X004119
X003865
X003611
X003357
X003103
X003085Y005905
X003535
Y005255
X003085
X00268Y005339
Y005085
Y004831
Y004577
Y004323
Y004069
Y005593
Y005847
T04
X00261Y00256
X00596Y0036
Y0055
X00261Y00634
M30
