G04 Layer_Color=16711935*
%FSLAX44Y44*%
%MOMM*%
G71*
G01*
G75*
%ADD26C,0.2540*%
%ADD29C,0.5000*%
%ADD38C,0.2000*%
%ADD40C,0.1000*%
%ADD65C,0.1524*%
%ADD66C,0.3000*%
%ADD67C,0.2300*%
D26*
X162460Y220000D02*
X226190D01*
X162460Y670000D02*
X226190D01*
X165000Y220000D02*
Y402593D01*
Y479279D02*
Y670000D01*
Y220000D02*
X170080Y235240D01*
X159920D02*
X165000Y220000D01*
X159920Y654760D02*
X165000Y670000D01*
X170080Y654760D01*
X625000Y158460D02*
Y216190D01*
X230000Y158460D02*
Y216190D01*
X461779Y161000D02*
X625000D01*
X230000D02*
X385093D01*
X609760Y166080D02*
X625000Y161000D01*
X609760Y155920D02*
X625000Y161000D01*
X230000D02*
X245240Y155920D01*
X230000Y161000D02*
X245240Y166080D01*
X230000Y220000D02*
Y670000D01*
Y220000D02*
X625000D01*
Y670000D01*
X230000D02*
X625000D01*
X357176Y405082D02*
Y409247D01*
X355093Y411330D01*
X346763D01*
X344680Y409247D01*
Y405082D01*
X346763Y402999D01*
X355093D01*
X357176Y405082D01*
X355093Y390503D02*
X357176Y392586D01*
Y396751D01*
X355093Y398834D01*
X353011D01*
X350928Y396751D01*
Y392586D01*
X348845Y390503D01*
X346763D01*
X344680Y392586D01*
Y396751D01*
X346763Y398834D01*
X355093Y378007D02*
X357176Y380090D01*
Y384255D01*
X355093Y386338D01*
X346763D01*
X344680Y384255D01*
Y380090D01*
X346763Y378007D01*
X344680Y373842D02*
Y369677D01*
Y371759D01*
X357176D01*
X355093Y373842D01*
X400260Y365465D02*
Y352769D01*
X402799Y350230D01*
X407878D01*
X410417Y352769D01*
Y365465D01*
X415495Y350230D02*
X420573D01*
X418034D01*
Y365465D01*
X415495Y362926D01*
X478765Y427000D02*
X494000D01*
Y437157D01*
X478765Y442235D02*
X494000D01*
Y449853D01*
X491461Y452392D01*
X481304D01*
X478765Y449853D01*
Y442235D01*
Y465088D02*
Y460009D01*
X481304Y457470D01*
X491461D01*
X494000Y460009D01*
Y465088D01*
X491461Y467627D01*
X481304D01*
X478765Y465088D01*
X494000Y472705D02*
Y477784D01*
Y475244D01*
X478765D01*
X481304Y472705D01*
D29*
X349000Y574000D02*
G03*
X349000Y574000I-2000J0D01*
G01*
D38*
X334440Y400410D02*
Y415650D01*
X306500D02*
X334440D01*
X306500Y400410D02*
Y415650D01*
Y400410D02*
X334440D01*
Y375010D02*
Y390250D01*
X306500D02*
X334440D01*
X306500Y375010D02*
Y390250D01*
Y375010D02*
X334440D01*
X533380Y490970D02*
X548620D01*
X533380Y463030D02*
Y490970D01*
Y463030D02*
X548620D01*
Y490970D01*
X533380Y453970D02*
X548620D01*
X533380Y426030D02*
Y453970D01*
Y426030D02*
X548620D01*
Y453970D01*
X545000Y322000D02*
Y354000D01*
X525000Y322000D02*
X545000D01*
X525000D02*
Y354000D01*
X545000D01*
X579240Y321380D02*
Y336620D01*
Y321380D02*
X581780D01*
X548760D02*
X581780D01*
X548760D02*
Y336620D01*
X581780D01*
Y321380D02*
Y336620D01*
X554220Y503840D02*
X589780D01*
X554220D02*
Y524160D01*
X589780D01*
Y503840D02*
Y524160D01*
X353000Y469000D02*
X385000D01*
X353000D02*
Y489000D01*
X385000D01*
Y469000D02*
Y489000D01*
X335760Y493380D02*
Y508620D01*
X333220D02*
X335760D01*
X333220D02*
X366240D01*
Y493380D02*
Y508620D01*
X333220Y493380D02*
X366240D01*
X333220D02*
Y508620D01*
X331000Y304000D02*
X363000D01*
X331000D02*
Y324000D01*
X363000D01*
Y304000D02*
Y324000D01*
X297760Y308380D02*
Y323620D01*
X295220D02*
X297760D01*
X295220D02*
X328240D01*
Y308380D02*
Y323620D01*
X295220Y308380D02*
X328240D01*
X295220D02*
Y323620D01*
X519840Y375220D02*
Y410780D01*
X540160D01*
Y375220D02*
Y410780D01*
X519840Y375220D02*
X540160D01*
X472840D02*
Y410780D01*
X493160D01*
Y375220D02*
Y410780D01*
X472840Y375220D02*
X493160D01*
X496840D02*
Y410780D01*
X517160D01*
Y375220D02*
Y410780D01*
X496840Y375220D02*
X517160D01*
X519240Y491380D02*
Y506620D01*
Y491380D02*
X521780D01*
X488760D02*
X521780D01*
X488760D02*
Y506620D01*
X521780D01*
Y491380D02*
Y506620D01*
X455000Y512000D02*
X487000D01*
Y492000D02*
Y512000D01*
X455000Y492000D02*
X487000D01*
X455000D02*
Y512000D01*
X444160Y449220D02*
Y484780D01*
X423840Y449220D02*
X444160D01*
X423840D02*
Y484780D01*
X444160D01*
X408220Y425840D02*
X443780D01*
X408220D02*
Y446160D01*
X443780D01*
Y425840D02*
Y446160D01*
X323840Y330220D02*
Y365780D01*
X344160D01*
Y330220D02*
Y365780D01*
X323840Y330220D02*
X344160D01*
X301000Y588000D02*
X361000D01*
X301000Y523000D02*
Y588000D01*
Y523000D02*
X361000D01*
Y588000D01*
X394380Y484970D02*
X409620D01*
X394380Y457030D02*
Y484970D01*
Y457030D02*
X409620D01*
Y484970D01*
X302000Y455000D02*
X334000D01*
Y435000D02*
Y455000D01*
X302000Y435000D02*
X334000D01*
X302000D02*
Y455000D01*
X302840Y330220D02*
Y365780D01*
X323160D01*
Y330220D02*
Y365780D01*
X302840Y330220D02*
X323160D01*
X566375Y410715D02*
Y489285D01*
X622980D01*
Y410715D02*
Y489285D01*
X566375Y410715D02*
X622980D01*
X530000Y350000D02*
X537997D01*
Y346001D01*
X536665Y344668D01*
X533999D01*
X532666Y346001D01*
Y350000D01*
Y347334D02*
X530000Y344668D01*
Y336671D02*
Y342003D01*
X535332Y336671D01*
X536665D01*
X537997Y338004D01*
Y340670D01*
X536665Y342003D01*
X381000Y484000D02*
Y476003D01*
X377001D01*
X375668Y477335D01*
Y480001D01*
X377001Y481334D01*
X381000D01*
X378334D02*
X375668Y484000D01*
X373003Y477335D02*
X371670Y476003D01*
X369004D01*
X367671Y477335D01*
Y478668D01*
X369004Y480001D01*
X370337D01*
X369004D01*
X367671Y481334D01*
Y482667D01*
X369004Y484000D01*
X371670D01*
X373003Y482667D01*
X359000Y319000D02*
Y311003D01*
X355001D01*
X353668Y312335D01*
Y315001D01*
X355001Y316334D01*
X359000D01*
X356334D02*
X353668Y319000D01*
X347004D02*
Y311003D01*
X351003Y315001D01*
X345671D01*
X459000Y497000D02*
Y504997D01*
X462999D01*
X464332Y503665D01*
Y500999D01*
X462999Y499666D01*
X459000D01*
X461666D02*
X464332Y497000D01*
X466997D02*
X469663D01*
X468330D01*
Y504997D01*
X466997Y503665D01*
X306000Y440000D02*
Y447997D01*
X309999D01*
X311332Y446665D01*
Y443999D01*
X309999Y442666D01*
X306000D01*
X308666D02*
X311332Y440000D01*
X319329Y447997D02*
X313997D01*
Y443999D01*
X316663Y445332D01*
X317996D01*
X319329Y443999D01*
Y441333D01*
X317996Y440000D01*
X315330D01*
X313997Y441333D01*
D40*
X328471Y407032D02*
X329471Y406032D01*
X331470D01*
X332470Y407032D01*
Y411030D01*
X331470Y412030D01*
X329471D01*
X328471Y411030D01*
X322473Y412030D02*
X326472D01*
X322473Y408031D01*
Y407032D01*
X323473Y406032D01*
X325472D01*
X326472Y407032D01*
X328471Y381632D02*
X329471Y380632D01*
X331470D01*
X332470Y381632D01*
Y385630D01*
X331470Y386630D01*
X329471D01*
X328471Y385630D01*
X326472Y386630D02*
X324473D01*
X325472D01*
Y380632D01*
X326472Y381632D01*
X542998Y485001D02*
Y489000D01*
X539999D01*
Y487001D01*
Y489000D01*
X537000D01*
X542998Y483002D02*
X537000D01*
Y480003D01*
X538000Y479003D01*
X538999D01*
X539999Y480003D01*
Y483002D01*
Y480003D01*
X540999Y479003D01*
X541998D01*
X542998Y480003D01*
Y483002D01*
X541998Y477004D02*
X542998Y476004D01*
Y474005D01*
X541998Y473005D01*
X540999D01*
X539999Y474005D01*
Y475005D01*
Y474005D01*
X538999Y473005D01*
X538000D01*
X537000Y474005D01*
Y476004D01*
X538000Y477004D01*
X542998Y448001D02*
Y452000D01*
X539999D01*
Y450001D01*
Y452000D01*
X537000D01*
X542998Y446002D02*
X537000D01*
Y443003D01*
X538000Y442003D01*
X538999D01*
X539999Y443003D01*
Y446002D01*
Y443003D01*
X540999Y442003D01*
X541998D01*
X542998Y443003D01*
Y446002D01*
X537000Y436005D02*
Y440004D01*
X540999Y436005D01*
X541998D01*
X542998Y437005D01*
Y439004D01*
X541998Y440004D01*
X576700Y325542D02*
Y331540D01*
X573701D01*
X572701Y330540D01*
Y326542D01*
X573701Y325542D01*
X576700D01*
X566703Y331540D02*
X570702D01*
X566703Y327541D01*
Y326542D01*
X567703Y325542D01*
X569702D01*
X570702Y326542D01*
X578161Y511542D02*
X579161Y510542D01*
X581160D01*
X582160Y511542D01*
Y515540D01*
X581160Y516540D01*
X579161D01*
X578161Y515540D01*
X576162Y516540D02*
X574163D01*
X575162D01*
Y510542D01*
X576162Y511542D01*
X571164D02*
X570164Y510542D01*
X568164D01*
X567165Y511542D01*
Y515540D01*
X568164Y516540D01*
X570164D01*
X571164Y515540D01*
Y511542D01*
X338300Y504458D02*
Y498460D01*
X341299D01*
X342299Y499460D01*
Y503458D01*
X341299Y504458D01*
X338300D01*
X344298Y503458D02*
X345298Y504458D01*
X347297D01*
X348297Y503458D01*
Y502459D01*
X347297Y501459D01*
X346297D01*
X347297D01*
X348297Y500459D01*
Y499460D01*
X347297Y498460D01*
X345298D01*
X344298Y499460D01*
X300300Y319458D02*
Y313460D01*
X303299D01*
X304299Y314460D01*
Y318458D01*
X303299Y319458D01*
X300300D01*
X309297Y313460D02*
Y319458D01*
X306298Y316459D01*
X310297D01*
X527542Y386839D02*
X526542Y385839D01*
Y383840D01*
X527542Y382840D01*
X531540D01*
X532540Y383840D01*
Y385839D01*
X531540Y386839D01*
X526542Y392837D02*
Y388838D01*
X529541D01*
X528541Y390837D01*
Y391837D01*
X529541Y392837D01*
X531540D01*
X532540Y391837D01*
Y389838D01*
X531540Y388838D01*
X480542Y386839D02*
X479542Y385839D01*
Y383840D01*
X480542Y382840D01*
X484540D01*
X485540Y383840D01*
Y385839D01*
X484540Y386839D01*
X479542Y392837D02*
X480542Y390837D01*
X482541Y388838D01*
X484540D01*
X485540Y389838D01*
Y391837D01*
X484540Y392837D01*
X483541D01*
X482541Y391837D01*
Y388838D01*
X504542Y386839D02*
X503542Y385839D01*
Y383840D01*
X504542Y382840D01*
X508540D01*
X509540Y383840D01*
Y385839D01*
X508540Y386839D01*
X503542Y388838D02*
Y392837D01*
X504542D01*
X508540Y388838D01*
X509540D01*
X516700Y495542D02*
Y501540D01*
X513701D01*
X512701Y500540D01*
Y496542D01*
X513701Y495542D01*
X516700D01*
X510702Y501540D02*
X508703D01*
X509702D01*
Y495542D01*
X510702Y496542D01*
X436458Y473161D02*
X437458Y474161D01*
Y476160D01*
X436458Y477160D01*
X432460D01*
X431460Y476160D01*
Y474161D01*
X432460Y473161D01*
Y471162D02*
X431460Y470162D01*
Y468163D01*
X432460Y467163D01*
X436458D01*
X437458Y468163D01*
Y470162D01*
X436458Y471162D01*
X435459D01*
X434459Y470162D01*
Y467163D01*
X432161Y433542D02*
X433161Y432542D01*
X435160D01*
X436160Y433542D01*
Y437540D01*
X435160Y438540D01*
X433161D01*
X432161Y437540D01*
X430162Y433542D02*
X429162Y432542D01*
X427163D01*
X426163Y433542D01*
Y434541D01*
X427163Y435541D01*
X426163Y436541D01*
Y437540D01*
X427163Y438540D01*
X429162D01*
X430162Y437540D01*
Y436541D01*
X429162Y435541D01*
X430162Y434541D01*
Y433542D01*
X429162Y435541D02*
X427163D01*
X331542Y341839D02*
X330542Y340839D01*
Y338840D01*
X331542Y337840D01*
X335540D01*
X336540Y338840D01*
Y340839D01*
X335540Y341839D01*
X336540Y346837D02*
X330542D01*
X333541Y343838D01*
Y347837D01*
X403998Y479001D02*
Y483000D01*
X400999D01*
Y481001D01*
Y483000D01*
X398000D01*
X403998Y477002D02*
X398000D01*
Y474003D01*
X399000Y473003D01*
X399999D01*
X400999Y474003D01*
Y477002D01*
Y474003D01*
X401999Y473003D01*
X402998D01*
X403998Y474003D01*
Y477002D01*
X398000Y471004D02*
Y469005D01*
Y470004D01*
X403998D01*
X402998Y471004D01*
X310542Y341839D02*
X309542Y340839D01*
Y338840D01*
X310542Y337840D01*
X314540D01*
X315540Y338840D01*
Y340839D01*
X314540Y341839D01*
X310542Y343838D02*
X309542Y344838D01*
Y346837D01*
X310542Y347837D01*
X311541D01*
X312541Y346837D01*
Y345837D01*
Y346837D01*
X313541Y347837D01*
X314540D01*
X315540Y346837D01*
Y344838D01*
X314540Y343838D01*
D65*
X174142Y414275D02*
X158906D01*
X166524Y406657D01*
Y416814D01*
X158906Y432049D02*
Y421892D01*
X166524D01*
X163985Y426970D01*
Y429510D01*
X166524Y432049D01*
X171602D01*
X174142Y429510D01*
Y424431D01*
X171602Y421892D01*
X174142Y437127D02*
X171602D01*
Y439666D01*
X174142D01*
Y437127D01*
X161446Y449823D02*
X158906Y452362D01*
Y457441D01*
X161446Y459980D01*
X171602D01*
X174142Y457441D01*
Y452362D01*
X171602Y449823D01*
X161446D01*
Y465058D02*
X158906Y467597D01*
Y472676D01*
X161446Y475215D01*
X171602D01*
X174142Y472676D01*
Y467597D01*
X171602Y465058D01*
X161446D01*
X389157Y164554D02*
X391696Y167094D01*
X396775D01*
X399314Y164554D01*
Y162015D01*
X396775Y159476D01*
X394235D01*
X396775D01*
X399314Y156937D01*
Y154398D01*
X396775Y151859D01*
X391696D01*
X389157Y154398D01*
X404392D02*
X406931Y151859D01*
X412010D01*
X414549Y154398D01*
Y164554D01*
X412010Y167094D01*
X406931D01*
X404392Y164554D01*
Y162015D01*
X406931Y159476D01*
X414549D01*
X419627Y151859D02*
Y154398D01*
X422166D01*
Y151859D01*
X419627D01*
X442480Y167094D02*
X432323D01*
Y159476D01*
X437402Y162015D01*
X439941D01*
X442480Y159476D01*
Y154398D01*
X439941Y151859D01*
X434862D01*
X432323Y154398D01*
X447558Y164554D02*
X450097Y167094D01*
X455176D01*
X457715Y164554D01*
Y154398D01*
X455176Y151859D01*
X450097D01*
X447558Y154398D01*
Y164554D01*
D66*
X324664Y561830D02*
X322498Y563996D01*
X318166D01*
X316000Y561830D01*
Y559664D01*
X318166Y557498D01*
X322498D01*
X324664Y555332D01*
Y553166D01*
X322498Y551000D01*
X318166D01*
X316000Y553166D01*
X328996Y563996D02*
Y551000D01*
X333328Y555332D01*
X337660Y551000D01*
Y563996D01*
X341992Y551000D02*
X346324D01*
X344158D01*
Y563996D01*
X341992Y561830D01*
D67*
X572765Y444157D02*
Y439078D01*
Y441618D01*
X585461D01*
X588000Y439078D01*
Y436539D01*
X585461Y434000D01*
X588000Y449235D02*
Y454313D01*
Y451774D01*
X572765D01*
X575304Y449235D01*
M02*
