G04 Layer_Physical_Order=2*
G04 Layer_Color=16711680*
%FSLAX44Y44*%
%MOMM*%
G71*
G01*
G75*
%ADD21R,1.9000X1.9000*%
%ADD26C,0.2540*%
%ADD27C,0.4000*%
%ADD29C,0.5000*%
%ADD30C,1.9000*%
%ADD31R,2.5000X1.5000*%
%ADD32O,2.5000X1.5000*%
%ADD33R,1.5000X2.5000*%
%ADD34O,1.5000X2.5000*%
G04:AMPARAMS|DCode=35|XSize=2mm|YSize=1.2mm|CornerRadius=0.36mm|HoleSize=0mm|Usage=FLASHONLY|Rotation=180.000|XOffset=0mm|YOffset=0mm|HoleType=Round|Shape=RoundedRectangle|*
%AMROUNDEDRECTD35*
21,1,2.0000,0.4800,0,0,180.0*
21,1,1.2800,1.2000,0,0,180.0*
1,1,0.7200,-0.6400,0.2400*
1,1,0.7200,0.6400,0.2400*
1,1,0.7200,0.6400,-0.2400*
1,1,0.7200,-0.6400,-0.2400*
%
%ADD35ROUNDEDRECTD35*%
%ADD36C,1.5240*%
%ADD37C,0.6000*%
G36*
X623625Y221375D02*
X230375D01*
Y668625D01*
X623625D01*
Y221375D01*
D02*
G37*
%LPC*%
G36*
X564300Y272614D02*
X561812Y272287D01*
X559493Y271326D01*
X557502Y269798D01*
X555974Y267807D01*
X555013Y265488D01*
X554686Y263000D01*
Y253000D01*
X555013Y250512D01*
X555974Y248193D01*
X557502Y246202D01*
X559493Y244674D01*
X561812Y243713D01*
X564300Y243386D01*
X566788Y243713D01*
X569107Y244674D01*
X571098Y246202D01*
X572626Y248193D01*
X573587Y250512D01*
X573914Y253000D01*
Y263000D01*
X573587Y265488D01*
X572626Y267807D01*
X571098Y269798D01*
X569107Y271326D01*
X566788Y272287D01*
X564300Y272614D01*
D02*
G37*
G36*
X538900D02*
X536412Y272287D01*
X534093Y271326D01*
X532102Y269798D01*
X530574Y267807D01*
X529613Y265488D01*
X529286Y263000D01*
Y253000D01*
X529613Y250512D01*
X530574Y248193D01*
X532102Y246202D01*
X534093Y244674D01*
X536412Y243713D01*
X538900Y243386D01*
X541388Y243713D01*
X543707Y244674D01*
X545698Y246202D01*
X547226Y248193D01*
X548187Y250512D01*
X548514Y253000D01*
Y263000D01*
X548187Y265488D01*
X547226Y267807D01*
X545698Y269798D01*
X543707Y271326D01*
X541388Y272287D01*
X538900Y272614D01*
D02*
G37*
G36*
X513500D02*
X511012Y272287D01*
X508693Y271326D01*
X506702Y269798D01*
X505174Y267807D01*
X504213Y265488D01*
X503886Y263000D01*
Y253000D01*
X504213Y250512D01*
X505174Y248193D01*
X506702Y246202D01*
X508693Y244674D01*
X511012Y243713D01*
X513500Y243386D01*
X515988Y243713D01*
X518307Y244674D01*
X520298Y246202D01*
X521826Y248193D01*
X522787Y250512D01*
X523114Y253000D01*
Y263000D01*
X522787Y265488D01*
X521826Y267807D01*
X520298Y269798D01*
X518307Y271326D01*
X515988Y272287D01*
X513500Y272614D01*
D02*
G37*
G36*
X589700D02*
X587212Y272287D01*
X584893Y271326D01*
X582902Y269798D01*
X581374Y267807D01*
X580413Y265488D01*
X580086Y263000D01*
Y253000D01*
X580413Y250512D01*
X581374Y248193D01*
X582902Y246202D01*
X584893Y244674D01*
X587212Y243713D01*
X589700Y243386D01*
X592188Y243713D01*
X594507Y244674D01*
X596498Y246202D01*
X598026Y248193D01*
X598987Y250512D01*
X599314Y253000D01*
Y263000D01*
X598987Y265488D01*
X598026Y267807D01*
X596498Y269798D01*
X594507Y271326D01*
X592188Y272287D01*
X589700Y272614D01*
D02*
G37*
G36*
X273000Y314914D02*
X263000D01*
X260512Y314587D01*
X258193Y313626D01*
X256202Y312098D01*
X254674Y310107D01*
X253713Y307788D01*
X253386Y305300D01*
X253713Y302812D01*
X254674Y300493D01*
X256202Y298502D01*
X258193Y296974D01*
X260512Y296013D01*
X263000Y295686D01*
X273000D01*
X275488Y296013D01*
X277807Y296974D01*
X279798Y298502D01*
X281326Y300493D01*
X282287Y302812D01*
X282614Y305300D01*
X282287Y307788D01*
X281326Y310107D01*
X279798Y312098D01*
X277807Y313626D01*
X275488Y314587D01*
X273000Y314914D01*
D02*
G37*
G36*
X261000Y269167D02*
X260866Y269140D01*
X260730Y269149D01*
X257858Y268771D01*
X257665Y268705D01*
X257598Y268697D01*
X257536Y268671D01*
X257336Y268631D01*
X254660Y267523D01*
X254490Y267409D01*
X254428Y267383D01*
X254374Y267342D01*
X254191Y267252D01*
X251894Y265489D01*
X251759Y265336D01*
X251705Y265294D01*
X251665Y265241D01*
X251511Y265107D01*
X249748Y262809D01*
X249657Y262626D01*
X249617Y262572D01*
X249591Y262510D01*
X249477Y262340D01*
X248369Y259664D01*
X248329Y259464D01*
X248303Y259402D01*
X248295Y259335D01*
X248229Y259142D01*
X247851Y256270D01*
X247864Y256067D01*
X247856Y256000D01*
X247864Y255933D01*
X247851Y255730D01*
X248229Y252858D01*
X248295Y252665D01*
X248303Y252598D01*
X248329Y252536D01*
X248369Y252336D01*
X249477Y249660D01*
X249591Y249490D01*
X249617Y249428D01*
X249658Y249374D01*
X249748Y249191D01*
X251511Y246894D01*
X251665Y246759D01*
X251705Y246705D01*
X251759Y246665D01*
X251894Y246511D01*
X254191Y244748D01*
X254374Y244657D01*
X254428Y244617D01*
X254490Y244591D01*
X254660Y244477D01*
X257336Y243369D01*
X257536Y243329D01*
X257598Y243303D01*
X257665Y243295D01*
X257858Y243229D01*
X260730Y242851D01*
X260866Y242860D01*
X261000Y242833D01*
X261134Y242860D01*
X261270Y242851D01*
X264142Y243229D01*
X264335Y243295D01*
X264402Y243303D01*
X264464Y243329D01*
X264664Y243369D01*
X267340Y244477D01*
X267510Y244591D01*
X267572Y244617D01*
X267626Y244658D01*
X267809Y244748D01*
X270107Y246511D01*
X270241Y246665D01*
X270294Y246705D01*
X270336Y246759D01*
X270489Y246894D01*
X272252Y249191D01*
X272342Y249374D01*
X272383Y249428D01*
X272409Y249490D01*
X272523Y249660D01*
X273631Y252336D01*
X273671Y252536D01*
X273697Y252598D01*
X273705Y252665D01*
X273771Y252858D01*
X274149Y255730D01*
X274136Y255933D01*
X274144Y256000D01*
X274136Y256067D01*
X274149Y256270D01*
X273771Y259142D01*
X273705Y259335D01*
X273697Y259402D01*
X273671Y259464D01*
X273631Y259664D01*
X272523Y262340D01*
X272409Y262510D01*
X272383Y262572D01*
X272342Y262626D01*
X272252Y262809D01*
X270489Y265107D01*
X270336Y265241D01*
X270294Y265294D01*
X270241Y265336D01*
X270107Y265489D01*
X267809Y267252D01*
X267626Y267342D01*
X267572Y267383D01*
X267510Y267409D01*
X267340Y267523D01*
X264664Y268631D01*
X264464Y268671D01*
X264402Y268697D01*
X264335Y268705D01*
X264142Y268771D01*
X261270Y269149D01*
X261134Y269140D01*
X261000Y269167D01*
D02*
G37*
G36*
X317800Y272572D02*
X302800D01*
X302007Y272414D01*
X301335Y271965D01*
X300886Y271293D01*
X300728Y270500D01*
Y245500D01*
X300886Y244707D01*
X301335Y244035D01*
X302007Y243586D01*
X302800Y243428D01*
X317800D01*
X318593Y243586D01*
X319265Y244035D01*
X319714Y244707D01*
X319872Y245500D01*
Y270500D01*
X319714Y271293D01*
X319265Y271965D01*
X318593Y272414D01*
X317800Y272572D01*
D02*
G37*
G36*
X386500Y272614D02*
X384012Y272287D01*
X381693Y271326D01*
X379702Y269798D01*
X378174Y267807D01*
X377213Y265488D01*
X376886Y263000D01*
Y253000D01*
X377213Y250512D01*
X378174Y248193D01*
X379702Y246202D01*
X381693Y244674D01*
X384012Y243713D01*
X386500Y243386D01*
X388988Y243713D01*
X391307Y244674D01*
X393298Y246202D01*
X394826Y248193D01*
X395787Y250512D01*
X396114Y253000D01*
Y263000D01*
X395787Y265488D01*
X394826Y267807D01*
X393298Y269798D01*
X391307Y271326D01*
X388988Y272287D01*
X386500Y272614D01*
D02*
G37*
G36*
X361100D02*
X358612Y272287D01*
X356293Y271326D01*
X354302Y269798D01*
X352774Y267807D01*
X351813Y265488D01*
X351486Y263000D01*
Y253000D01*
X351813Y250512D01*
X352774Y248193D01*
X354302Y246202D01*
X356293Y244674D01*
X358612Y243713D01*
X361100Y243386D01*
X363588Y243713D01*
X365907Y244674D01*
X367898Y246202D01*
X369426Y248193D01*
X370387Y250512D01*
X370714Y253000D01*
Y263000D01*
X370387Y265488D01*
X369426Y267807D01*
X367898Y269798D01*
X365907Y271326D01*
X363588Y272287D01*
X361100Y272614D01*
D02*
G37*
G36*
X335700D02*
X333212Y272287D01*
X330893Y271326D01*
X328902Y269798D01*
X327374Y267807D01*
X326413Y265488D01*
X326086Y263000D01*
Y253000D01*
X326413Y250512D01*
X327374Y248193D01*
X328902Y246202D01*
X330893Y244674D01*
X333212Y243713D01*
X335700Y243386D01*
X338188Y243713D01*
X340507Y244674D01*
X342498Y246202D01*
X344026Y248193D01*
X344987Y250512D01*
X345314Y253000D01*
Y263000D01*
X344987Y265488D01*
X344026Y267807D01*
X342498Y269798D01*
X340507Y271326D01*
X338188Y272287D01*
X335700Y272614D01*
D02*
G37*
G36*
X411900D02*
X409412Y272287D01*
X407093Y271326D01*
X405102Y269798D01*
X403574Y267807D01*
X402613Y265488D01*
X402286Y263000D01*
Y253000D01*
X402613Y250512D01*
X403574Y248193D01*
X405102Y246202D01*
X407093Y244674D01*
X409412Y243713D01*
X411900Y243386D01*
X414388Y243713D01*
X416707Y244674D01*
X418698Y246202D01*
X420226Y248193D01*
X421187Y250512D01*
X421514Y253000D01*
Y263000D01*
X421187Y265488D01*
X420226Y267807D01*
X418698Y269798D01*
X416707Y271326D01*
X414388Y272287D01*
X411900Y272614D01*
D02*
G37*
G36*
X488100D02*
X485612Y272287D01*
X483293Y271326D01*
X481302Y269798D01*
X479774Y267807D01*
X478813Y265488D01*
X478486Y263000D01*
Y253000D01*
X478813Y250512D01*
X479774Y248193D01*
X481302Y246202D01*
X483293Y244674D01*
X485612Y243713D01*
X488100Y243386D01*
X490588Y243713D01*
X492907Y244674D01*
X494898Y246202D01*
X496426Y248193D01*
X497387Y250512D01*
X497714Y253000D01*
Y263000D01*
X497387Y265488D01*
X496426Y267807D01*
X494898Y269798D01*
X492907Y271326D01*
X490588Y272287D01*
X488100Y272614D01*
D02*
G37*
G36*
X462700D02*
X460212Y272287D01*
X457893Y271326D01*
X455902Y269798D01*
X454374Y267807D01*
X453413Y265488D01*
X453086Y263000D01*
Y253000D01*
X453413Y250512D01*
X454374Y248193D01*
X455902Y246202D01*
X457893Y244674D01*
X460212Y243713D01*
X462700Y243386D01*
X465188Y243713D01*
X467507Y244674D01*
X469498Y246202D01*
X471026Y248193D01*
X471987Y250512D01*
X472314Y253000D01*
Y263000D01*
X471987Y265488D01*
X471026Y267807D01*
X469498Y269798D01*
X467507Y271326D01*
X465188Y272287D01*
X462700Y272614D01*
D02*
G37*
G36*
X437300D02*
X434812Y272287D01*
X432493Y271326D01*
X430502Y269798D01*
X428974Y267807D01*
X428013Y265488D01*
X427686Y263000D01*
Y253000D01*
X428013Y250512D01*
X428974Y248193D01*
X430502Y246202D01*
X432493Y244674D01*
X434812Y243713D01*
X437300Y243386D01*
X439788Y243713D01*
X442107Y244674D01*
X444098Y246202D01*
X445626Y248193D01*
X446587Y250512D01*
X446914Y253000D01*
Y263000D01*
X446587Y265488D01*
X445626Y267807D01*
X444098Y269798D01*
X442107Y271326D01*
X439788Y272287D01*
X437300Y272614D01*
D02*
G37*
G36*
X335700Y646614D02*
X333212Y646287D01*
X330893Y645326D01*
X328902Y643798D01*
X327374Y641807D01*
X326413Y639488D01*
X326086Y637000D01*
Y627000D01*
X326413Y624512D01*
X327374Y622193D01*
X328902Y620202D01*
X330893Y618674D01*
X333212Y617713D01*
X335700Y617386D01*
X338188Y617713D01*
X340507Y618674D01*
X342498Y620202D01*
X344026Y622193D01*
X344987Y624512D01*
X345314Y627000D01*
Y637000D01*
X344987Y639488D01*
X344026Y641807D01*
X342498Y643798D01*
X340507Y645326D01*
X338188Y646287D01*
X335700Y646614D01*
D02*
G37*
G36*
X363000Y602072D02*
X344000D01*
X343207Y601914D01*
X342535Y601465D01*
X342086Y600793D01*
X341928Y600000D01*
Y581000D01*
X342086Y580207D01*
X342535Y579535D01*
X343207Y579086D01*
X344000Y578928D01*
X363000D01*
X363793Y579086D01*
X364465Y579535D01*
X364914Y580207D01*
X365072Y581000D01*
Y600000D01*
X364914Y600793D01*
X364465Y601465D01*
X363793Y601914D01*
X363000Y602072D01*
D02*
G37*
G36*
X596000Y563167D02*
X595866Y563140D01*
X595730Y563149D01*
X592858Y562771D01*
X592665Y562705D01*
X592598Y562697D01*
X592536Y562671D01*
X592336Y562631D01*
X589660Y561523D01*
X589490Y561409D01*
X589428Y561383D01*
X589374Y561342D01*
X589191Y561252D01*
X586894Y559489D01*
X586759Y559336D01*
X586706Y559295D01*
X586665Y559241D01*
X586511Y559106D01*
X584748Y556809D01*
X584658Y556626D01*
X584617Y556572D01*
X584591Y556510D01*
X584477Y556340D01*
X583369Y553664D01*
X583329Y553464D01*
X583303Y553402D01*
X583295Y553335D01*
X583229Y553142D01*
X582851Y550270D01*
X582864Y550067D01*
X582856Y550000D01*
X582864Y549933D01*
X582851Y549730D01*
X583229Y546858D01*
X583295Y546665D01*
X583303Y546598D01*
X583329Y546536D01*
X583369Y546336D01*
X584477Y543660D01*
X584591Y543490D01*
X584617Y543428D01*
X584658Y543374D01*
X584748Y543191D01*
X586511Y540894D01*
X586665Y540759D01*
X586706Y540705D01*
X586759Y540664D01*
X586894Y540511D01*
X589191Y538748D01*
X589374Y538657D01*
X589428Y538617D01*
X589490Y538591D01*
X589660Y538477D01*
X592336Y537369D01*
X592536Y537329D01*
X592598Y537303D01*
X592665Y537295D01*
X592858Y537229D01*
X595730Y536851D01*
X595866Y536860D01*
X596000Y536833D01*
X596134Y536860D01*
X596270Y536851D01*
X599142Y537229D01*
X599335Y537295D01*
X599402Y537303D01*
X599464Y537329D01*
X599664Y537369D01*
X602340Y538477D01*
X602510Y538591D01*
X602572Y538617D01*
X602626Y538658D01*
X602809Y538748D01*
X605107Y540511D01*
X605241Y540664D01*
X605294Y540705D01*
X605336Y540759D01*
X605489Y540894D01*
X607252Y543191D01*
X607342Y543374D01*
X607383Y543428D01*
X607409Y543490D01*
X607523Y543660D01*
X608631Y546336D01*
X608671Y546536D01*
X608697Y546598D01*
X608705Y546665D01*
X608771Y546858D01*
X609149Y549730D01*
X609136Y549933D01*
X609145Y550000D01*
X609136Y550067D01*
X609149Y550270D01*
X608771Y553142D01*
X608705Y553335D01*
X608697Y553402D01*
X608671Y553464D01*
X608631Y553664D01*
X607523Y556340D01*
X607409Y556510D01*
X607383Y556572D01*
X607342Y556626D01*
X607252Y556809D01*
X605489Y559106D01*
X605336Y559241D01*
X605294Y559295D01*
X605241Y559336D01*
X605107Y559489D01*
X602809Y561252D01*
X602626Y561343D01*
X602572Y561383D01*
X602510Y561409D01*
X602340Y561523D01*
X599664Y562631D01*
X599464Y562671D01*
X599402Y562697D01*
X599335Y562705D01*
X599142Y562771D01*
X596270Y563149D01*
X596134Y563140D01*
X596000Y563167D01*
D02*
G37*
G36*
X361100Y646614D02*
X358612Y646287D01*
X356293Y645326D01*
X354302Y643798D01*
X352774Y641807D01*
X351813Y639488D01*
X351486Y637000D01*
Y627000D01*
X351813Y624512D01*
X352774Y622193D01*
X354302Y620202D01*
X356293Y618674D01*
X358612Y617713D01*
X361100Y617386D01*
X363588Y617713D01*
X365907Y618674D01*
X367898Y620202D01*
X369426Y622193D01*
X370387Y624512D01*
X370714Y627000D01*
Y637000D01*
X370387Y639488D01*
X369426Y641807D01*
X367898Y643798D01*
X365907Y645326D01*
X363588Y646287D01*
X361100Y646614D01*
D02*
G37*
G36*
X261000Y647167D02*
X260866Y647140D01*
X260730Y647149D01*
X257858Y646771D01*
X257665Y646705D01*
X257598Y646697D01*
X257536Y646671D01*
X257336Y646631D01*
X254660Y645523D01*
X254490Y645409D01*
X254428Y645383D01*
X254374Y645342D01*
X254191Y645252D01*
X251894Y643489D01*
X251759Y643335D01*
X251705Y643295D01*
X251665Y643241D01*
X251511Y643107D01*
X249748Y640809D01*
X249657Y640626D01*
X249617Y640572D01*
X249591Y640510D01*
X249477Y640340D01*
X248369Y637664D01*
X248329Y637464D01*
X248303Y637402D01*
X248295Y637335D01*
X248229Y637142D01*
X247851Y634270D01*
X247864Y634067D01*
X247856Y634000D01*
X247864Y633933D01*
X247851Y633730D01*
X248229Y630858D01*
X248295Y630665D01*
X248303Y630598D01*
X248329Y630536D01*
X248369Y630336D01*
X249477Y627660D01*
X249591Y627490D01*
X249617Y627428D01*
X249658Y627374D01*
X249748Y627191D01*
X251511Y624893D01*
X251665Y624759D01*
X251705Y624706D01*
X251759Y624664D01*
X251894Y624511D01*
X254191Y622748D01*
X254374Y622658D01*
X254428Y622617D01*
X254490Y622591D01*
X254660Y622477D01*
X257336Y621369D01*
X257536Y621329D01*
X257598Y621303D01*
X257665Y621295D01*
X257858Y621229D01*
X260730Y620851D01*
X260866Y620860D01*
X261000Y620833D01*
X261134Y620860D01*
X261270Y620851D01*
X264142Y621229D01*
X264335Y621295D01*
X264402Y621303D01*
X264464Y621329D01*
X264664Y621369D01*
X267340Y622477D01*
X267510Y622591D01*
X267572Y622617D01*
X267626Y622658D01*
X267809Y622748D01*
X270107Y624511D01*
X270241Y624664D01*
X270294Y624706D01*
X270336Y624759D01*
X270489Y624893D01*
X272252Y627191D01*
X272342Y627374D01*
X272383Y627428D01*
X272409Y627490D01*
X272523Y627660D01*
X273631Y630336D01*
X273671Y630536D01*
X273697Y630598D01*
X273705Y630665D01*
X273771Y630858D01*
X274149Y633730D01*
X274136Y633933D01*
X274144Y634000D01*
X274136Y634067D01*
X274149Y634270D01*
X273771Y637142D01*
X273705Y637335D01*
X273697Y637402D01*
X273671Y637464D01*
X273631Y637664D01*
X272523Y640340D01*
X272409Y640510D01*
X272383Y640572D01*
X272342Y640626D01*
X272252Y640809D01*
X270489Y643107D01*
X270336Y643241D01*
X270294Y643295D01*
X270241Y643335D01*
X270107Y643489D01*
X267809Y645252D01*
X267626Y645342D01*
X267572Y645383D01*
X267510Y645409D01*
X267340Y645523D01*
X264664Y646631D01*
X264464Y646671D01*
X264402Y646697D01*
X264335Y646705D01*
X264142Y646771D01*
X261270Y647149D01*
X261134Y647140D01*
X261000Y647167D01*
D02*
G37*
G36*
X538900Y646614D02*
X536412Y646287D01*
X534093Y645326D01*
X532102Y643798D01*
X530574Y641807D01*
X529613Y639488D01*
X529286Y637000D01*
Y627000D01*
X529613Y624512D01*
X530574Y622193D01*
X532102Y620202D01*
X534093Y618674D01*
X536412Y617713D01*
X538900Y617386D01*
X541388Y617713D01*
X543707Y618674D01*
X545698Y620202D01*
X547226Y622193D01*
X548187Y624512D01*
X548514Y627000D01*
Y637000D01*
X548187Y639488D01*
X547226Y641807D01*
X545698Y643798D01*
X543707Y645326D01*
X541388Y646287D01*
X538900Y646614D01*
D02*
G37*
G36*
X488100D02*
X485612Y646287D01*
X483293Y645326D01*
X481302Y643798D01*
X479774Y641807D01*
X478813Y639488D01*
X478486Y637000D01*
Y627000D01*
X478813Y624512D01*
X479774Y622193D01*
X481302Y620202D01*
X483293Y618674D01*
X485612Y617713D01*
X488100Y617386D01*
X490588Y617713D01*
X492907Y618674D01*
X494898Y620202D01*
X495122Y620216D01*
X515633Y599706D01*
Y470395D01*
X460308Y415069D01*
X460000Y415131D01*
X458037Y414740D01*
X456372Y413628D01*
X455260Y411963D01*
X454869Y410000D01*
X455260Y408037D01*
X456372Y406372D01*
X458037Y405260D01*
X459703Y404929D01*
X459879Y404303D01*
X459910Y403655D01*
X458372Y402628D01*
X457260Y400963D01*
X456869Y399000D01*
X456931Y398692D01*
X417572Y359333D01*
X416963Y359740D01*
X416408Y359851D01*
X416040Y361066D01*
X436053Y381079D01*
X436963Y381260D01*
X438628Y382372D01*
X439740Y384037D01*
X440131Y386000D01*
X439740Y387963D01*
X438628Y389628D01*
X436963Y390740D01*
X435000Y391131D01*
X433037Y390740D01*
X431372Y389628D01*
X430260Y387963D01*
X429869Y386000D01*
X430132Y384681D01*
X404619Y359168D01*
X403890Y358076D01*
X403633Y356787D01*
Y341912D01*
X402363Y341527D01*
X401628Y342628D01*
X399963Y343740D01*
X398000Y344131D01*
X396037Y343740D01*
X394372Y342628D01*
X394198Y342367D01*
X359114D01*
X358689Y342910D01*
X358895Y343923D01*
X359138Y344377D01*
X360628Y345372D01*
X361740Y347037D01*
X362131Y349000D01*
X361799Y350665D01*
X362502Y351935D01*
X390328D01*
X391372Y350372D01*
X393037Y349260D01*
X395000Y348869D01*
X396963Y349260D01*
X398628Y350372D01*
X399740Y352037D01*
X400131Y354000D01*
X399740Y355963D01*
X399175Y356808D01*
X399760Y358219D01*
X399963Y358260D01*
X401628Y359372D01*
X402740Y361037D01*
X403131Y363000D01*
X402740Y364963D01*
X401628Y366628D01*
X399963Y367740D01*
X398000Y368131D01*
X396037Y367740D01*
X395428Y367333D01*
X391301Y371460D01*
X391787Y372633D01*
X393000D01*
X394288Y372890D01*
X395381Y373619D01*
X400155Y378394D01*
X400372Y378372D01*
X402037Y377260D01*
X404000Y376869D01*
X405963Y377260D01*
X407628Y378372D01*
X408740Y380037D01*
X409131Y382000D01*
X408740Y383963D01*
X407628Y385628D01*
X405963Y386740D01*
X404000Y387131D01*
X402037Y386740D01*
X400372Y385628D01*
X400198Y385367D01*
X399000D01*
X399000Y385367D01*
X397712Y385110D01*
X397263Y384811D01*
X395860Y385356D01*
X395739Y385963D01*
X394627Y387627D01*
X394366Y387802D01*
Y416088D01*
X394110Y417377D01*
X393380Y418469D01*
X385815Y426034D01*
X386216Y427429D01*
X387628Y428372D01*
X387864Y428726D01*
X389134D01*
X389371Y428371D01*
X391036Y427259D01*
X392999Y426869D01*
X394963Y427259D01*
X396627Y428371D01*
X397739Y430036D01*
X398130Y431999D01*
X397739Y433963D01*
X396627Y435627D01*
X396366Y435802D01*
Y512766D01*
X397636Y513196D01*
X399037Y512260D01*
X401000Y511869D01*
X401308Y511931D01*
X408931Y504308D01*
X408869Y504000D01*
X409260Y502037D01*
X410372Y500372D01*
X412037Y499260D01*
X414000Y498869D01*
X415963Y499260D01*
X417628Y500372D01*
X418740Y502037D01*
X419131Y504000D01*
X418740Y505963D01*
X417628Y507628D01*
X415963Y508740D01*
X414000Y509131D01*
X413692Y509069D01*
X406069Y516692D01*
X406131Y517000D01*
X405740Y518963D01*
X404628Y520628D01*
X402963Y521740D01*
X401000Y522131D01*
X399037Y521740D01*
X397636Y520804D01*
X396366Y521234D01*
Y611705D01*
X404878Y620216D01*
X405102Y620202D01*
X407093Y618674D01*
X409412Y617713D01*
X411900Y617386D01*
X414388Y617713D01*
X416707Y618674D01*
X418698Y620202D01*
X420226Y622193D01*
X421187Y624512D01*
X421514Y627000D01*
Y637000D01*
X421187Y639488D01*
X420226Y641807D01*
X418698Y643798D01*
X416707Y645326D01*
X414388Y646287D01*
X411900Y646614D01*
X409412Y646287D01*
X407093Y645326D01*
X405102Y643798D01*
X403574Y641807D01*
X402613Y639488D01*
X402286Y637000D01*
Y627147D01*
X390619Y615480D01*
X389889Y614388D01*
X389632Y613099D01*
Y435802D01*
X389371Y435627D01*
X388019Y435677D01*
X387367Y436337D01*
Y617500D01*
X388988Y617713D01*
X391307Y618674D01*
X393298Y620202D01*
X394826Y622193D01*
X395787Y624512D01*
X396114Y627000D01*
Y637000D01*
X395787Y639488D01*
X394826Y641807D01*
X393298Y643798D01*
X391307Y645326D01*
X388988Y646287D01*
X386500Y646614D01*
X384012Y646287D01*
X381693Y645326D01*
X379702Y643798D01*
X378174Y641807D01*
X377213Y639488D01*
X376886Y637000D01*
Y627000D01*
X377213Y624512D01*
X378174Y622193D01*
X379702Y620202D01*
X380633Y619487D01*
Y544924D01*
X379363Y544398D01*
X364381Y559381D01*
X363288Y560110D01*
X362000Y560367D01*
X302094D01*
X282572Y579889D01*
Y592200D01*
X282414Y592993D01*
X281965Y593665D01*
X281293Y594114D01*
X280500Y594272D01*
X255500D01*
X254707Y594114D01*
X254035Y593665D01*
X253586Y592993D01*
X253428Y592200D01*
Y577200D01*
X253586Y576407D01*
X254035Y575735D01*
X254707Y575286D01*
X255500Y575128D01*
X277810D01*
X298319Y554619D01*
X299412Y553890D01*
X300700Y553633D01*
X360606D01*
X374331Y539907D01*
Y445685D01*
X373061Y445006D01*
X371963Y445740D01*
X370367Y446058D01*
Y456198D01*
X370628Y456372D01*
X371740Y458037D01*
X372131Y460000D01*
X371740Y461963D01*
X370628Y463628D01*
X368963Y464740D01*
X367000Y465131D01*
X365037Y464740D01*
X363372Y463628D01*
X362260Y461963D01*
X361869Y460000D01*
X362195Y458362D01*
X361099Y457662D01*
X294939Y523823D01*
Y533428D01*
X294682Y534716D01*
X293953Y535809D01*
X279043Y550718D01*
X279126Y551986D01*
X279798Y552502D01*
X281326Y554493D01*
X282287Y556812D01*
X282614Y559300D01*
X282287Y561788D01*
X281326Y564107D01*
X279798Y566098D01*
X277807Y567626D01*
X275488Y568587D01*
X273000Y568914D01*
X263000D01*
X260512Y568587D01*
X258193Y567626D01*
X256202Y566098D01*
X254674Y564107D01*
X253713Y561788D01*
X253386Y559300D01*
X253713Y556812D01*
X254674Y554493D01*
X256202Y552502D01*
X258193Y550974D01*
X260512Y550013D01*
X263000Y549686D01*
X270553D01*
X275879Y544360D01*
X275730Y543913D01*
X275221Y543222D01*
X273000Y543514D01*
X263000D01*
X260512Y543187D01*
X258193Y542226D01*
X256202Y540698D01*
X254674Y538707D01*
X253713Y536388D01*
X253386Y533900D01*
X253713Y531412D01*
X254674Y529093D01*
X256202Y527102D01*
X258193Y525574D01*
X260512Y524613D01*
X263000Y524286D01*
X273000D01*
X275488Y524613D01*
X277807Y525574D01*
X279798Y527102D01*
X281326Y529093D01*
X281568Y529677D01*
X282888Y529969D01*
X283633Y529317D01*
Y520000D01*
X283890Y518712D01*
X284619Y517619D01*
X317010Y485229D01*
X316592Y483851D01*
X316037Y483740D01*
X314372Y482628D01*
X313260Y480963D01*
X312869Y479000D01*
X313260Y477037D01*
X314372Y475372D01*
X316037Y474260D01*
X316247Y474218D01*
X338732Y451733D01*
X340232Y450731D01*
X340374Y450703D01*
X341037Y450260D01*
X343000Y449869D01*
X344963Y450260D01*
X346628Y451372D01*
X347606Y452836D01*
X348980Y453258D01*
X354489Y447749D01*
Y433766D01*
X354746Y432477D01*
X355475Y431385D01*
X372633Y414227D01*
Y376534D01*
X372890Y375246D01*
X373619Y374154D01*
X379154Y368619D01*
X380246Y367890D01*
X381534Y367633D01*
X385606D01*
X392619Y360619D01*
X393389Y360105D01*
X393259Y358803D01*
X393240Y358781D01*
X393037Y358740D01*
X392930Y358669D01*
X352799D01*
X352732Y358720D01*
X352838Y359965D01*
X352864Y360041D01*
X353963Y360259D01*
X355627Y361371D01*
X356739Y363036D01*
X357130Y364999D01*
X356739Y366963D01*
X355627Y368627D01*
X353963Y369739D01*
X351999Y370130D01*
X350036Y369739D01*
X348371Y368627D01*
X348197Y368366D01*
X321861D01*
X307655Y382572D01*
Y408326D01*
X307398Y409614D01*
X306669Y410706D01*
X301511Y415864D01*
Y459322D01*
X301254Y460610D01*
X300525Y461702D01*
X288367Y473860D01*
Y492000D01*
X288110Y493288D01*
X287381Y494381D01*
X279912Y501850D01*
X281326Y503693D01*
X282287Y506012D01*
X282614Y508500D01*
X282287Y510988D01*
X281326Y513307D01*
X279798Y515298D01*
X277807Y516826D01*
X275488Y517787D01*
X273000Y518114D01*
X263000D01*
X260512Y517787D01*
X258193Y516826D01*
X256202Y515298D01*
X254674Y513307D01*
X253713Y510988D01*
X253386Y508500D01*
X253713Y506012D01*
X254674Y503693D01*
X256202Y501702D01*
X258193Y500174D01*
X260512Y499213D01*
X263000Y498886D01*
X273000D01*
X273312Y498927D01*
X281458Y490780D01*
X281353Y489958D01*
X280050Y489570D01*
X279798Y489898D01*
X277807Y491426D01*
X275488Y492387D01*
X273000Y492714D01*
X263000D01*
X260512Y492387D01*
X258193Y491426D01*
X256202Y489898D01*
X254674Y487907D01*
X253713Y485588D01*
X253386Y483100D01*
X253713Y480612D01*
X254674Y478293D01*
X256202Y476302D01*
X258193Y474774D01*
X260512Y473813D01*
X263000Y473486D01*
X272753D01*
X290205Y456034D01*
Y446915D01*
X289032Y446429D01*
X281690Y453771D01*
X282287Y455212D01*
X282614Y457700D01*
X282287Y460188D01*
X281326Y462507D01*
X279798Y464498D01*
X277807Y466026D01*
X275488Y466987D01*
X273000Y467314D01*
X263000D01*
X260512Y466987D01*
X258193Y466026D01*
X256202Y464498D01*
X254674Y462507D01*
X253713Y460188D01*
X253386Y457700D01*
X253713Y455212D01*
X254674Y452893D01*
X256202Y450902D01*
X258193Y449374D01*
X260512Y448413D01*
X263000Y448086D01*
X273000D01*
X275488Y448413D01*
X276929Y449010D01*
X285633Y440305D01*
Y426087D01*
X284460Y425601D01*
X281690Y428371D01*
X282287Y429812D01*
X282614Y432300D01*
X282287Y434788D01*
X281326Y437107D01*
X279798Y439098D01*
X277807Y440626D01*
X275488Y441587D01*
X273000Y441914D01*
X263000D01*
X260512Y441587D01*
X258193Y440626D01*
X256202Y439098D01*
X254674Y437107D01*
X253713Y434788D01*
X253386Y432300D01*
X253713Y429812D01*
X254674Y427493D01*
X256202Y425502D01*
X258193Y423974D01*
X260512Y423013D01*
X263000Y422686D01*
X273000D01*
X275488Y423013D01*
X276929Y423610D01*
X281061Y419477D01*
Y414028D01*
X279859Y413620D01*
X279798Y413698D01*
X277807Y415226D01*
X275488Y416187D01*
X273000Y416514D01*
X263000D01*
X260512Y416187D01*
X258193Y415226D01*
X256202Y413698D01*
X254674Y411707D01*
X253713Y409388D01*
X253386Y406900D01*
X253713Y404412D01*
X254674Y402093D01*
X256202Y400102D01*
X258193Y398574D01*
X260512Y397613D01*
X263000Y397286D01*
X273000D01*
X275488Y397613D01*
X277807Y398574D01*
X279798Y400102D01*
X280119Y400520D01*
X281386Y400603D01*
X282633Y399356D01*
Y386470D01*
X281363Y386217D01*
X281326Y386307D01*
X279798Y388298D01*
X277807Y389826D01*
X275488Y390787D01*
X273000Y391114D01*
X263000D01*
X260512Y390787D01*
X258193Y389826D01*
X256202Y388298D01*
X254674Y386307D01*
X253713Y383988D01*
X253386Y381500D01*
X253713Y379012D01*
X254674Y376693D01*
X256202Y374702D01*
X258193Y373174D01*
X260512Y372213D01*
X263000Y371886D01*
X273000D01*
X275079Y372160D01*
X322619Y324619D01*
X323712Y323890D01*
X325000Y323633D01*
X341198D01*
X341372Y323372D01*
X343037Y322260D01*
X345000Y321869D01*
X346963Y322260D01*
X348628Y323372D01*
X349740Y325037D01*
X350131Y327000D01*
X349740Y328963D01*
X349076Y329957D01*
X349840Y331100D01*
X351000Y330869D01*
X352963Y331260D01*
X354628Y332372D01*
X355740Y334037D01*
X356090Y335797D01*
X356912Y335633D01*
X394198D01*
X394372Y335372D01*
X396037Y334260D01*
X398000Y333869D01*
X399963Y334260D01*
X401628Y335372D01*
X402363Y336473D01*
X403633Y336088D01*
Y333395D01*
X387606Y317367D01*
X382802D01*
X382628Y317628D01*
X380963Y318740D01*
X379000Y319131D01*
X377037Y318740D01*
X375372Y317628D01*
X374260Y315963D01*
X373869Y314000D01*
X374260Y312037D01*
X375372Y310372D01*
X377037Y309260D01*
X379000Y308869D01*
X380963Y309260D01*
X382628Y310372D01*
X382802Y310633D01*
X389000D01*
X390288Y310890D01*
X391381Y311619D01*
X409381Y329619D01*
X410110Y330712D01*
X410367Y332000D01*
Y350765D01*
X411637Y351195D01*
X413037Y350260D01*
X415000Y349869D01*
X416963Y350260D01*
X418628Y351372D01*
X418925Y351817D01*
X419288Y351890D01*
X420381Y352619D01*
X461692Y393931D01*
X462000Y393869D01*
X463963Y394260D01*
X465628Y395372D01*
X466740Y397037D01*
X467131Y399000D01*
X466740Y400963D01*
X465628Y402628D01*
X463963Y403740D01*
X462297Y404072D01*
X462121Y404697D01*
X462090Y405345D01*
X463628Y406372D01*
X464740Y408037D01*
X465131Y410000D01*
X465069Y410308D01*
X521381Y466619D01*
X522110Y467712D01*
X522367Y469000D01*
Y601100D01*
X522110Y602388D01*
X521381Y603481D01*
X497714Y627147D01*
Y637000D01*
X497387Y639488D01*
X496426Y641807D01*
X494898Y643798D01*
X492907Y645326D01*
X490588Y646287D01*
X488100Y646614D01*
D02*
G37*
G36*
X353500Y537132D02*
X350490Y536735D01*
X347684Y535573D01*
X345275Y533725D01*
X343427Y531316D01*
X342265Y528510D01*
X341869Y525500D01*
X342265Y522490D01*
X343427Y519684D01*
X345275Y517275D01*
X347684Y515427D01*
X350490Y514265D01*
X353500Y513868D01*
X356511Y514265D01*
X359316Y515427D01*
X361725Y517275D01*
X363573Y519684D01*
X364735Y522490D01*
X365131Y525500D01*
X364735Y528510D01*
X363573Y531316D01*
X361725Y533725D01*
X359316Y535573D01*
X356511Y536735D01*
X353500Y537132D01*
D02*
G37*
G36*
X596000Y373167D02*
X595866Y373140D01*
X595730Y373149D01*
X592858Y372771D01*
X592665Y372705D01*
X592598Y372697D01*
X592536Y372671D01*
X592336Y372631D01*
X589660Y371523D01*
X589490Y371409D01*
X589428Y371383D01*
X589374Y371342D01*
X589191Y371252D01*
X586894Y369489D01*
X586759Y369336D01*
X586706Y369295D01*
X586665Y369241D01*
X586511Y369106D01*
X584748Y366809D01*
X584658Y366626D01*
X584617Y366572D01*
X584591Y366510D01*
X584477Y366340D01*
X583369Y363664D01*
X583329Y363464D01*
X583303Y363402D01*
X583295Y363335D01*
X583229Y363142D01*
X582851Y360270D01*
X582864Y360067D01*
X582856Y360000D01*
X582864Y359933D01*
X582851Y359730D01*
X583229Y356858D01*
X583295Y356665D01*
X583303Y356598D01*
X583329Y356536D01*
X583369Y356336D01*
X584477Y353660D01*
X584591Y353490D01*
X584617Y353428D01*
X584658Y353374D01*
X584748Y353191D01*
X586511Y350894D01*
X586665Y350759D01*
X586706Y350705D01*
X586759Y350664D01*
X586894Y350511D01*
X589191Y348748D01*
X589374Y348657D01*
X589428Y348617D01*
X589490Y348591D01*
X589660Y348477D01*
X592336Y347369D01*
X592536Y347329D01*
X592598Y347303D01*
X592665Y347295D01*
X592858Y347229D01*
X595730Y346851D01*
X595866Y346860D01*
X596000Y346833D01*
X596134Y346860D01*
X596270Y346851D01*
X599142Y347229D01*
X599335Y347295D01*
X599402Y347303D01*
X599464Y347329D01*
X599664Y347369D01*
X602340Y348477D01*
X602510Y348591D01*
X602572Y348617D01*
X602626Y348658D01*
X602809Y348748D01*
X605107Y350511D01*
X605241Y350664D01*
X605294Y350705D01*
X605336Y350759D01*
X605489Y350894D01*
X607252Y353191D01*
X607342Y353374D01*
X607383Y353428D01*
X607409Y353490D01*
X607523Y353660D01*
X608631Y356336D01*
X608671Y356536D01*
X608697Y356598D01*
X608705Y356665D01*
X608771Y356858D01*
X609149Y359730D01*
X609136Y359933D01*
X609145Y360000D01*
X609136Y360067D01*
X609149Y360270D01*
X608771Y363142D01*
X608705Y363335D01*
X608697Y363402D01*
X608671Y363464D01*
X608631Y363664D01*
X607523Y366340D01*
X607409Y366510D01*
X607383Y366572D01*
X607342Y366626D01*
X607252Y366809D01*
X605489Y369106D01*
X605336Y369241D01*
X605294Y369295D01*
X605241Y369336D01*
X605107Y369489D01*
X602809Y371252D01*
X602626Y371343D01*
X602572Y371383D01*
X602510Y371409D01*
X602340Y371523D01*
X599664Y372631D01*
X599464Y372671D01*
X599402Y372697D01*
X599335Y372705D01*
X599142Y372771D01*
X596270Y373149D01*
X596134Y373140D01*
X596000Y373167D01*
D02*
G37*
G36*
X273000Y365714D02*
X263000D01*
X260512Y365387D01*
X258193Y364426D01*
X256202Y362898D01*
X254674Y360907D01*
X253713Y358588D01*
X253386Y356100D01*
X253713Y353612D01*
X254674Y351293D01*
X256202Y349302D01*
X258193Y347774D01*
X260512Y346813D01*
X263000Y346486D01*
X273000D01*
X275488Y346813D01*
X277807Y347774D01*
X279798Y349302D01*
X281326Y351293D01*
X282287Y353612D01*
X282614Y356100D01*
X282287Y358588D01*
X281326Y360907D01*
X279798Y362898D01*
X277807Y364426D01*
X275488Y365387D01*
X273000Y365714D01*
D02*
G37*
G36*
Y340314D02*
X263000D01*
X260512Y339987D01*
X258193Y339026D01*
X256202Y337498D01*
X254674Y335507D01*
X253713Y333188D01*
X253386Y330700D01*
X253713Y328212D01*
X254674Y325893D01*
X256202Y323902D01*
X258193Y322374D01*
X260512Y321413D01*
X263000Y321086D01*
X273000D01*
X275488Y321413D01*
X277807Y322374D01*
X279798Y323902D01*
X281326Y325893D01*
X282287Y328212D01*
X282614Y330700D01*
X282287Y333188D01*
X281326Y335507D01*
X279798Y337498D01*
X277807Y339026D01*
X275488Y339987D01*
X273000Y340314D01*
D02*
G37*
G36*
X488000Y565131D02*
X486037Y564740D01*
X484372Y563628D01*
X483260Y561963D01*
X482869Y560000D01*
X483260Y558037D01*
X484372Y556372D01*
X484633Y556198D01*
Y549394D01*
X406619Y471381D01*
X405890Y470288D01*
X405633Y469000D01*
Y422802D01*
X405372Y422628D01*
X404260Y420963D01*
X403869Y419000D01*
X404260Y417037D01*
X405372Y415372D01*
X407037Y414260D01*
X409000Y413869D01*
X410963Y414260D01*
X412628Y415372D01*
X413740Y417037D01*
X414131Y419000D01*
X413740Y420963D01*
X412628Y422628D01*
X412367Y422802D01*
Y467606D01*
X490381Y545619D01*
X491110Y546712D01*
X491367Y548000D01*
Y556198D01*
X491628Y556372D01*
X492740Y558037D01*
X493131Y560000D01*
X492740Y561963D01*
X491628Y563628D01*
X489963Y564740D01*
X488000Y565131D01*
D02*
G37*
G36*
X564300Y646614D02*
X561812Y646287D01*
X559493Y645326D01*
X557502Y643798D01*
X555974Y641807D01*
X555013Y639488D01*
X554686Y637000D01*
Y627000D01*
X555013Y624512D01*
X555974Y622193D01*
X557502Y620202D01*
X559493Y618674D01*
X560933Y618077D01*
Y475960D01*
X559663Y475575D01*
X559628Y475628D01*
X557963Y476740D01*
X556000Y477131D01*
X554037Y476740D01*
X552372Y475628D01*
X551260Y473963D01*
X550869Y472000D01*
X551260Y470037D01*
X551889Y469095D01*
Y439905D01*
X551260Y438963D01*
X550869Y437000D01*
X551260Y435037D01*
X552372Y433372D01*
X554037Y432260D01*
X556000Y431869D01*
X557963Y432260D01*
X559628Y433372D01*
X559665Y433428D01*
X560935Y433043D01*
Y413697D01*
X513436Y366197D01*
X512221Y366566D01*
X512142Y366963D01*
X511574Y367813D01*
X550787Y407026D01*
X551963Y407260D01*
X553628Y408372D01*
X554740Y410037D01*
X555131Y412000D01*
X554740Y413963D01*
X553628Y415628D01*
X551963Y416740D01*
X550000Y417131D01*
X548037Y416740D01*
X546372Y415628D01*
X545260Y413963D01*
X544869Y412000D01*
X545097Y410858D01*
X505021Y370782D01*
X504291Y369690D01*
X504127Y368864D01*
X503774Y368628D01*
X502662Y366963D01*
X502271Y365000D01*
X502662Y363037D01*
X503774Y361372D01*
X505376Y360301D01*
X505414Y360031D01*
X505303Y358992D01*
X504037Y358740D01*
X502372Y357628D01*
X501260Y355963D01*
X500869Y354000D01*
X501260Y352037D01*
X502372Y350372D01*
X503929Y349332D01*
X503970Y348905D01*
X503803Y348012D01*
X502438Y347740D01*
X500774Y346628D01*
X499662Y344963D01*
X499271Y343000D01*
X499662Y341037D01*
X500774Y339372D01*
X502438Y338260D01*
X504402Y337869D01*
X506365Y338260D01*
X508030Y339372D01*
X509142Y341037D01*
X509532Y343000D01*
X509471Y343308D01*
X571255Y405092D01*
X571984Y406184D01*
X572241Y407472D01*
Y447504D01*
X572239Y447514D01*
Y605477D01*
X584189Y617428D01*
X597200D01*
X597993Y617586D01*
X598665Y618035D01*
X599114Y618707D01*
X599272Y619500D01*
Y644500D01*
X599114Y645293D01*
X598665Y645965D01*
X597993Y646414D01*
X597200Y646572D01*
X582200D01*
X581407Y646414D01*
X580735Y645965D01*
X580286Y645293D01*
X580128Y644500D01*
Y622889D01*
X568840Y611601D01*
X567667Y612087D01*
Y618077D01*
X569107Y618674D01*
X571098Y620202D01*
X572626Y622193D01*
X573587Y624512D01*
X573914Y627000D01*
Y637000D01*
X573587Y639488D01*
X572626Y641807D01*
X571098Y643798D01*
X569107Y645326D01*
X566788Y646287D01*
X564300Y646614D01*
D02*
G37*
G36*
X437300D02*
X434812Y646287D01*
X432493Y645326D01*
X430502Y643798D01*
X428974Y641807D01*
X428013Y639488D01*
X427686Y637000D01*
Y627000D01*
X428013Y624512D01*
X428974Y622193D01*
X430502Y620202D01*
X432493Y618674D01*
X434812Y617713D01*
X437300Y617386D01*
X439788Y617713D01*
X442107Y618674D01*
X444098Y620202D01*
X444322Y620216D01*
X497633Y566906D01*
Y485875D01*
X436068Y424309D01*
X435760Y424371D01*
X433797Y423980D01*
X432132Y422868D01*
X431020Y421203D01*
X430629Y419240D01*
X431020Y417277D01*
X432132Y415612D01*
X433797Y414500D01*
X435760Y414109D01*
X437723Y414500D01*
X439388Y415612D01*
X440500Y417277D01*
X440891Y419240D01*
X440829Y419548D01*
X503381Y482099D01*
X504110Y483192D01*
X504367Y484480D01*
Y568300D01*
X504110Y569588D01*
X503381Y570681D01*
X446914Y627147D01*
Y637000D01*
X446587Y639488D01*
X445626Y641807D01*
X444098Y643798D01*
X442107Y645326D01*
X439788Y646287D01*
X437300Y646614D01*
D02*
G37*
G36*
X462700D02*
X460212Y646287D01*
X457893Y645326D01*
X455902Y643798D01*
X454374Y641807D01*
X453413Y639488D01*
X453086Y637000D01*
Y627000D01*
X453413Y624512D01*
X454374Y622193D01*
X455902Y620202D01*
X457893Y618674D01*
X460212Y617713D01*
X462700Y617386D01*
X465188Y617713D01*
X467507Y618674D01*
X469498Y620202D01*
X469722Y620216D01*
X506633Y583306D01*
Y480395D01*
X449308Y423069D01*
X449000Y423131D01*
X447037Y422740D01*
X445372Y421628D01*
X444260Y419963D01*
X443869Y418000D01*
X444260Y416037D01*
X445372Y414372D01*
X447037Y413260D01*
X449000Y412869D01*
X450963Y413260D01*
X452628Y414372D01*
X453740Y416037D01*
X454131Y418000D01*
X454069Y418308D01*
X512381Y476619D01*
X513110Y477712D01*
X513367Y479000D01*
Y584700D01*
X513110Y585988D01*
X512381Y587081D01*
X472314Y627147D01*
Y637000D01*
X471987Y639488D01*
X471026Y641807D01*
X469498Y643798D01*
X467507Y645326D01*
X465188Y646287D01*
X462700Y646614D01*
D02*
G37*
%LPD*%
D21*
X353500Y590500D02*
D03*
D26*
X318000Y479000D02*
Y479000D01*
X298144Y414470D02*
X304288Y408326D01*
X564300Y445612D02*
Y632000D01*
X568872Y447506D02*
Y606872D01*
X546000Y499000D02*
X556000Y489000D01*
X531000Y499000D02*
X546000D01*
X564300Y445612D02*
X564302Y445610D01*
X462700Y632000D02*
X510000Y584700D01*
Y479000D02*
Y584700D01*
X449000Y418000D02*
X510000Y479000D01*
X437300Y632000D02*
X501000Y568300D01*
Y484480D02*
Y568300D01*
X435760Y419240D02*
X501000Y484480D01*
X488100Y632000D02*
X519000Y601100D01*
Y469000D02*
Y601100D01*
X460000Y410000D02*
X519000Y469000D01*
X393000Y376000D02*
X399000Y382000D01*
X383000Y376000D02*
X393000D01*
X381000Y378000D02*
X383000Y376000D01*
X381000Y378000D02*
Y417088D01*
X387000Y371000D02*
X395000Y363000D01*
X381534Y371000D02*
X387000D01*
X376000Y376534D02*
X381534Y371000D01*
X376000Y376534D02*
Y415622D01*
X395000Y363000D02*
X398000D01*
X377698Y429390D02*
X390999Y416088D01*
Y383999D02*
Y416088D01*
X399000Y382000D02*
X404000D01*
X392999Y431999D02*
Y613099D01*
X384000Y432000D02*
Y629500D01*
X386500Y632000D01*
X377698Y429390D02*
Y541302D01*
X287000Y520000D02*
Y531000D01*
X397999Y371999D02*
X413299D01*
X362000Y557000D02*
X377698Y541302D01*
X392999Y613099D02*
X411900Y632000D01*
X504402Y343000D02*
X568874Y407472D01*
X506000Y354000D02*
X564302Y412302D01*
Y445610D01*
X568874Y407472D02*
Y447504D01*
X568872Y447506D02*
X568874Y447504D01*
X589700Y627700D02*
Y632000D01*
X568872Y606872D02*
X589700Y627700D01*
X268000Y437300D02*
X284428Y420872D01*
X356912Y339000D02*
X398000D01*
X268000Y411900D02*
X275100D01*
X279100Y538900D02*
X287000Y531000D01*
X268000Y538900D02*
X279100D01*
X268000Y509000D02*
Y513500D01*
Y589700D02*
X300700Y557000D01*
X362000D01*
X268000Y462700D02*
X289000Y441700D01*
X279856Y406894D02*
Y407144D01*
X275100Y411900D02*
X279856Y407144D01*
Y406894D02*
X286000Y400751D01*
X284428Y408788D02*
Y420872D01*
Y408788D02*
X290572Y402644D01*
X289000Y410682D02*
Y441700D01*
Y410682D02*
X295144Y404538D01*
X293572Y412576D02*
X299716Y406432D01*
X352912Y343000D02*
X356912Y339000D01*
X268000Y384000D02*
Y386500D01*
Y384000D02*
X325000Y327000D01*
X345000D01*
X286000Y373000D02*
Y400751D01*
Y373000D02*
X323000Y336000D01*
X351000D01*
X290572Y374894D02*
Y402644D01*
Y374894D02*
X322466Y343000D01*
X352912D01*
X295144Y376856D02*
Y404538D01*
Y376856D02*
X323000Y349000D01*
X357000D01*
X299716Y379284D02*
Y406432D01*
Y379284D02*
X323698Y355302D01*
X394698D01*
X304288Y381178D02*
Y408326D01*
Y381178D02*
X320466Y364999D01*
X351999D01*
X507402Y365000D02*
Y368402D01*
X551500Y412500D01*
X367000Y444000D02*
Y460000D01*
X287000Y520000D02*
X357856Y449144D01*
Y433766D02*
Y449144D01*
X362428Y435660D02*
Y451572D01*
X367000Y444000D02*
X370000Y441000D01*
X362428Y435660D02*
X381000Y417088D01*
X357856Y433766D02*
X376000Y415622D01*
X409000Y419000D02*
Y469000D01*
X488000Y548000D01*
Y560000D01*
X551398Y412000D02*
X551700Y412302D01*
X550000Y412000D02*
X551398D01*
X556000Y437000D02*
X557000Y438000D01*
X556000Y439000D02*
X557000Y438000D01*
X268000Y483000D02*
Y488100D01*
Y483000D02*
X293572Y457428D01*
Y412576D02*
Y457428D01*
X298144Y414470D02*
Y459322D01*
X401000Y517000D02*
X414000Y504000D01*
X342000Y455000D02*
X343000D01*
X379000Y314000D02*
X389000D01*
X407000Y332000D01*
X413299Y371999D02*
X421030Y379730D01*
X415000Y355000D02*
X418000D01*
X462000Y399000D01*
X407000Y332000D02*
Y356787D01*
X394698Y355302D02*
X395000Y355000D01*
Y354000D02*
Y355000D01*
X407000Y356787D02*
X435000Y384787D01*
Y386000D01*
X268000Y557000D02*
Y564300D01*
X291572Y522428D02*
X362428Y451572D01*
X291572Y522428D02*
Y533428D01*
X268000Y557000D02*
X291572Y533428D01*
X285000Y472466D02*
X298144Y459322D01*
X285000Y472466D02*
Y492000D01*
X268000Y509000D02*
X285000Y492000D01*
D27*
X556000Y439000D02*
Y472000D01*
D29*
X318000Y479000D02*
X342000Y455000D01*
D30*
X308500Y590500D02*
D03*
Y525500D02*
D03*
X353500D02*
D03*
D31*
X268000Y584700D02*
D03*
D32*
Y559300D02*
D03*
Y533900D02*
D03*
Y508500D02*
D03*
Y483100D02*
D03*
Y457700D02*
D03*
Y432300D02*
D03*
Y406900D02*
D03*
Y381500D02*
D03*
Y356100D02*
D03*
Y330700D02*
D03*
Y305300D02*
D03*
D33*
X310300Y258000D02*
D03*
X589700Y632000D02*
D03*
D34*
X335700Y258000D02*
D03*
X361100D02*
D03*
X386500D02*
D03*
X411900D02*
D03*
X437300D02*
D03*
X462700D02*
D03*
X488100D02*
D03*
X513500D02*
D03*
X538900D02*
D03*
X564300D02*
D03*
X589700D02*
D03*
X564300Y632000D02*
D03*
X538900D02*
D03*
X513500D02*
D03*
X488100D02*
D03*
X462700D02*
D03*
X437300D02*
D03*
X411900D02*
D03*
X386500D02*
D03*
X361100D02*
D03*
X335700D02*
D03*
X310300D02*
D03*
D35*
X595375Y483000D02*
D03*
Y417000D02*
D03*
D36*
X261000Y256000D02*
D03*
Y634000D02*
D03*
X596000Y360000D02*
D03*
Y550000D02*
D03*
D37*
X316834Y426834D02*
D03*
X318000Y479000D02*
D03*
X531000Y499000D02*
D03*
X556000Y489000D02*
D03*
X449000Y418000D02*
D03*
X435760Y419240D02*
D03*
X488000Y560000D02*
D03*
X460000Y410000D02*
D03*
X390999Y383999D02*
D03*
X404000Y382000D02*
D03*
X462000Y399000D02*
D03*
X370000Y441000D02*
D03*
X384000Y432000D02*
D03*
X392999Y431999D02*
D03*
X507402Y365000D02*
D03*
X506000Y354000D02*
D03*
X504402Y343000D02*
D03*
X351999Y364999D02*
D03*
X357000Y349000D02*
D03*
X351000Y336000D02*
D03*
X397999Y371999D02*
D03*
X398000Y363000D02*
D03*
X345000Y327000D02*
D03*
X398000Y339000D02*
D03*
X367000Y460000D02*
D03*
X409000Y419000D02*
D03*
X550000Y412000D02*
D03*
X556000Y437000D02*
D03*
Y472000D02*
D03*
X502000Y431000D02*
D03*
X407000Y548000D02*
D03*
X401000Y517000D02*
D03*
X414000Y504000D02*
D03*
X343000Y455000D02*
D03*
X299000Y328000D02*
D03*
X379000Y314000D02*
D03*
X421030Y379730D02*
D03*
X415000Y355000D02*
D03*
X395000Y354000D02*
D03*
X435000Y386000D02*
D03*
M02*
